<svg xmlns="http://www.w3.org/2000/svg" xmlns:xlink="http://www.w3.org/1999/xlink" xmlns:lucid="lucid" width="1080" height="1075"><g transform="translate(-280 -60)" lucid:page-tab-id="0_0"><path d="M560 202.02c0-3.32 2.7-6 6-6h148c3.3 0 6 2.68 6 6v68c0 3.3-2.7 6-6 6H566c-3.3 0-6-2.7-6-6z" stroke="#5e5e5e" stroke-width="3" fill="#fff"/><use xlink:href="#a" transform="matrix(1,0,0,1,572,208.01844984180843) translate(38.4320987654321 31.77777777777778)"/><path d="M940 202.02c0-3.32 2.7-6 6-6h148c3.3 0 6 2.68 6 6v68c0 3.3-2.7 6-6 6H946c-3.3 0-6-2.7-6-6z" stroke="#5e5e5e" stroke-width="3" fill="#fff"/><use xlink:href="#b" transform="matrix(1,0,0,1,952,208.01844984180843) translate(33.52469135802469 31.77777777777778)"/><path d="M980 606c0-3.3 2.7-6 6-6h148c3.3 0 6 2.7 6 6v68c0 3.3-2.7 6-6 6H986c-3.3 0-6-2.7-6-6z" stroke="#5e5e5e" stroke-width="3" fill="#fff"/><use xlink:href="#c" transform="matrix(1,0,0,1,992,612) translate(30.407407407407412 31.77777777777778)"/><path d="M985 1026c0-3.3 2.7-6 6-6h148c3.3 0 6 2.7 6 6v68c0 3.3-2.7 6-6 6H991c-3.3 0-6-2.7-6-6z" stroke="#5e5e5e" stroke-width="3" fill="#fff"/><use xlink:href="#d" transform="matrix(1,0,0,1,997,1032) translate(23.586419753086417 31.77777777777778)"/><path d="M560 606c0-3.3 2.7-6 6-6h148c3.3 0 6 2.7 6 6v68c0 3.3-2.7 6-6 6H566c-3.3 0-6-2.7-6-6z" stroke="#5e5e5e" stroke-width="3" fill="#fff"/><use xlink:href="#e" transform="matrix(1,0,0,1,572,612) translate(39.66666666666667 31.77777777777778)"/><path d="M560 981c0-3.3 2.7-6 6-6h148c3.3 0 6 2.7 6 6v68c0 3.3-2.7 6-6 6H566c-3.3 0-6-2.7-6-6z" stroke="#5e5e5e" stroke-width="3" fill="#fff"/><use xlink:href="#f" transform="matrix(1,0,0,1,572,987) translate(17.444444444444436 31.77777777777778)"/><path d="M635.2 763.6c2.65-2 6.95-2 9.6 0l70.4 52.8c2.65 2 2.65 5.2 0 7.2l-70.4 52.8c-2.65 2-6.95 2-9.6 0l-70.4-52.8c-2.65-2-2.65-5.2 0-7.2z" stroke="#5e5e5e" stroke-width="3" fill="#fff"/><use xlink:href="#g" transform="matrix(1,0,0,1,565,765) translate(30.066728395061716 59.02777777777778)"/><path d="M634.63 382.68c2.97-1.48 7.77-1.48 10.74 0l69.26 34.64c2.97 1.48 2.97 3.88 0 5.36l-69.26 34.64c-2.97 1.48-7.77 1.48-10.74 0l-69.26-34.64c-2.97-1.48-2.97-3.88 0-5.36z" stroke="#5e5e5e" stroke-width="3" fill="#fff"/><use xlink:href="#h" transform="matrix(1,0,0,1,565,385) translate(37.4124074074074 39.65277777777778)"/><path d="M396 212.04c13.25 0 24 10.73 24 23.98 0 13.24-10.75 23.98-24 23.98h-72c-13.25 0-24-10.74-24-23.98 0-13.25 10.75-23.98 24-23.98z" stroke="#5e5e5e" stroke-width="3" fill="#fff"/><use xlink:href="#i" transform="matrix(1,0,0,1,305,217.03689968361687) translate(43.91975308641975 22.52777777777778)"/><path d="M396 615c13.25 0 24 11.2 24 25s-10.75 25-24 25h-72c-13.25 0-24-11.2-24-25s10.75-25 24-25z" stroke="#5e5e5e" stroke-width="3" fill="#fff"/><use xlink:href="#i" transform="matrix(1,0,0,1,305,620) translate(43.91975308641975 25.27777777777778)"/><path d="M422.5 236.02h135" stroke="#5e5e5e" stroke-width="2" fill="none"/><path d="M422.53 237.02h-1.13l.1-.97-.05-1.03h1.08M558.5 237.02h-1.03v-2h1.03" fill="#5e5e5e"/><path d="M422.5 640h135" stroke="#5e5e5e" stroke-width="2" fill="none"/><path d="M422.53 641h-1.12l.1-1-.08-1h1.1M558.5 641h-1.03v-2h1.03" fill="#5e5e5e"/><path d="M466 985c13.25 0 24 13.43 24 30s-10.75 30-24 30h-72c-13.25 0-24-13.43-24-30s10.75-30 24-30z" stroke="#5e5e5e" stroke-width="3" fill="#fff"/><use xlink:href="#i" transform="matrix(1,0,0,1,375,990) translate(43.91975308641975 30.27777777777778)"/><path d="M492.5 1015h65" stroke="#5e5e5e" stroke-width="2" fill="none"/><path d="M492.53 1016h-1.1l.07-.96-.03-1.04h1.06M558.5 1016h-1.03v-2h1.03" fill="#5e5e5e"/><path d="M640 379.16V278.52" stroke="#5e5e5e" stroke-width="2" fill="none"/><path d="M641 380.1l-2 .12v-1.1h2M641 278.54h-2v-1.02h2" fill="#5e5e5e"/><path d="M640 460.84v118.84" stroke="#5e5e5e" stroke-width="2" fill="none"/><path d="M641 460.87h-2v-.96l2-.12" fill="#5e5e5e"/><path d="M630 598.05l10-20 10 20" stroke="#5e5e5e" stroke-width="2" fill="#fff" fill-opacity="0"/><path d="M640 598.05v-20" stroke="#5e5e5e" stroke-width="2" fill="#fff"/><path d="M436 550c13.25 0 24 11.2 24 25s-10.75 25-24 25h-72c-13.25 0-24-11.2-24-25s10.75-25 24-25z" stroke="#5e5e5e" stroke-width="3" fill="#fff"/><use xlink:href="#j" transform="matrix(1,0,0,1,345,555) translate(13.703703703703702 25.27777777777778)"/><use xlink:href="#k" transform="matrix(1,0,0,1,345,555) translate(42.03703703703704 25.27777777777778)"/><path d="M436 680c13.25 0 24 11.2 24 25s-10.75 25-24 25h-72c-13.25 0-24-11.2-24-25s10.75-25 24-25z" stroke="#5e5e5e" stroke-width="3" fill="#fff"/><use xlink:href="#l" transform="matrix(1,0,0,1,345,685) translate(17.407407407407405 25.27777777777778)"/><use xlink:href="#m" transform="matrix(1,0,0,1,345,685) translate(35.925925925925924 25.27777777777778)"/><path d="M476 745c13.25 0 24 11.2 24 25s-10.75 25-24 25h-72c-13.25 0-24-11.2-24-25s10.75-25 24-25z" stroke="#5e5e5e" stroke-width="3" fill="#fff"/><use xlink:href="#n" transform="matrix(1,0,0,1,385,750) translate(18.703703703703702 25.27777777777778)"/><path d="M472 483.33c15.46 0 28 11.2 28 25s-12.54 25-28 25h-84c-15.46 0-28-11.2-28-25s12.54-25 28-25z" stroke="#5e5e5e" stroke-width="3" fill="#fff"/><use xlink:href="#j" transform="matrix(1,0,0,1,365,488.3333333333333) translate(8.92475308641975 25.46527777777778)"/><use xlink:href="#o" transform="matrix(1,0,0,1,365,488.3333333333333) translate(37.258086419753084 25.46527777777778)"/><path d="M502.5 508.33H524c3.32 0 6 2.7 6 6v91.5c0 3.32 2.7 6 6 6h21.5" stroke="#5e5e5e" stroke-width="2" fill="none"/><path d="M502.53 509.33h-1.1l.07-.98-.07-1.02h1.1M558.5 612.83h-1.03v-2h1.03" fill="#5e5e5e"/><path d="M462.5 575H504c3.32 0 6 2.7 6 6v39.3c0 3.3 2.7 6 6 6h41.5" stroke="#5e5e5e" stroke-width="2" fill="none"/><path d="M462.53 576h-1.12l.1-1-.08-1h1.1M558.5 627.3h-1.03v-2h1.03" fill="#5e5e5e"/><path d="M462.5 705H504c3.32 0 6-2.7 6-6v-38.97c0-3.32 2.7-6 6-6h41.5" stroke="#5e5e5e" stroke-width="2" fill="none"/><path d="M462.53 706h-1.12l.1-1-.08-1h1.1M558.5 655.03h-1.03v-2h1.03" fill="#5e5e5e"/><path d="M502.5 770H524c3.32 0 6-2.7 6-6v-91.92c0-3.3 2.7-6 6-6h21.5" stroke="#5e5e5e" stroke-width="2" fill="none"/><path d="M502.53 771h-1.12l.1-1-.08-1h1.1M558.5 667.08h-1.03v-2h1.03" fill="#5e5e5e"/><path d="M959.68 640H740.32" stroke="#5e5e5e" stroke-width="2" fill="none"/><path d="M978.05 650l-20-10 20-10" stroke="#5e5e5e" stroke-width="2" fill="#fff" fill-opacity="0"/><path d="M978.05 640h-20" stroke="#5e5e5e" stroke-width="2" fill="#fff"/><path d="M721.95 630l20 10-20 10" stroke="#5e5e5e" stroke-width="2" fill="#fff" fill-opacity="0"/><path d="M721.95 640h20" stroke="#5e5e5e" stroke-width="2" fill="#fff"/><path d="M1296 580c13.25 0 24 11.2 24 25s-10.75 25-24 25h-72c-13.25 0-24-11.2-24-25s10.75-25 24-25z" stroke="#5e5e5e" stroke-width="3" fill="#fff"/><use xlink:href="#i" transform="matrix(1,0,0,1,1205,585) translate(43.91975308641975 25.27777777777778)"/><path d="M436 146.02c13.25 0 24 11.2 24 25s-10.75 25-24 25h-72c-13.25 0-24-11.2-24-25s10.75-25 24-25z" stroke="#5e5e5e" stroke-width="3" fill="#fff"/><use xlink:href="#p" transform="matrix(1,0,0,1,345,151.01844984180843) translate(28.333333333333336 25.27777777777778)"/><path d="M436 276.02c13.25 0 24 11.2 24 25s-10.75 25-24 25h-72c-13.25 0-24-11.2-24-25s10.75-25 24-25z" stroke="#5e5e5e" stroke-width="3" fill="#fff"/><use xlink:href="#q" transform="matrix(1,0,0,1,345,281.01844984180843) translate(7.530864197530867 25.27777777777778)"/><path d="M462.5 301.02H504c3.32 0 6-2.7 6-6V259.4c0-3.32 2.7-6 6-6h41.5" stroke="#5e5e5e" stroke-width="2" fill="none"/><path d="M462.53 302.02h-1.12l.1-1-.08-1h1.1M558.5 254.4h-1.03v-2h1.03" fill="#5e5e5e"/><path d="M462.5 171.02H504c3.32 0 6 2.68 6 6v33.94c0 3.3 2.7 6 6 6h41.5" stroke="#5e5e5e" stroke-width="2" fill="none"/><path d="M462.53 172.02h-1.12l.1-1-.08-1h1.1M558.5 217.96h-1.03v-2h1.03" fill="#5e5e5e"/><path d="M476 80c13.25 0 24 11.2 24 25s-10.75 25-24 25h-72c-13.25 0-24-11.2-24-25s10.75-25 24-25z" stroke="#5e5e5e" stroke-width="3" fill="#fff"/><use xlink:href="#r" transform="matrix(1,0,0,1,385,85) translate(35.24691358024691 25.27777777777778)"/><path d="M502.5 105H524c3.32 0 6 2.7 6 6v85c0 3.3 2.7 6 6 6h21.5" stroke="#5e5e5e" stroke-width="2" fill="none"/><path d="M502.53 106h-1.12l.1-1-.08-1h1.1M558.5 201.82V203h-1.03v-2h1.25" fill="#5e5e5e"/><path d="M1020 426c0-3.3 2.7-6 6-6h148c3.3 0 6 2.7 6 6v68c0 3.3-2.7 6-6 6h-148c-3.3 0-6-2.7-6-6z" stroke="#5e5e5e" stroke-width="3" fill="#fff"/><use xlink:href="#s" transform="matrix(1,0,0,1,1032,432) translate(26.086419753086417 31.77777777777778)"/><path d="M999.68 460H876c-3.3 0-6 2.7-6 6v168c0 3.3-2.7 6-6 6H740.32" stroke="#5e5e5e" stroke-width="2" fill="none"/><path d="M1018.05 470l-20-10 20-10" stroke="#5e5e5e" stroke-width="2" fill="#fff" fill-opacity="0"/><path d="M1018.05 460h-20" stroke="#5e5e5e" stroke-width="2" fill="#fff"/><path d="M721.95 630l20 10-20 10" stroke="#5e5e5e" stroke-width="2" fill="#fff" fill-opacity="0"/><path d="M721.95 640h20" stroke="#5e5e5e" stroke-width="2" fill="#fff"/><path d="M1316 400c13.25 0 24 11.2 24 25s-10.75 25-24 25h-72c-13.25 0-24-11.2-24-25s10.75-25 24-25z" stroke="#5e5e5e" stroke-width="3" fill="#fff"/><use xlink:href="#i" transform="matrix(1,0,0,1,1225,405) translate(43.91975308641975 25.27777777777778)"/><path d="M1182.5 460h11.62c3.3 0 6-2.7 6-6v-20.23c0-3.3 2.68-6 6-6h11.6" stroke="#5e5e5e" stroke-width="2" fill="none"/><path d="M1182.53 461h-1.03v-2h1.03M1218.82 428.77h-1.12v-2h.95" fill="#5e5e5e"/><path d="M1142.5 640h21.5c3.3 0 6-2.7 6-6v-23c0-3.3 2.68-6 6-6h21.5" stroke="#5e5e5e" stroke-width="2" fill="none"/><path d="M1142.53 641h-1.03v-2h1.03M1198.5 605l.08 1h-1.1v-2h1.1" fill="#5e5e5e"/><path d="M1054.5 824.66c3.04-1.32 7.96-1.32 11 0l104 45.2c3.04 1.34 3.04 3.48 0 4.8l-104 45.2c-3.04 1.34-7.96 1.34-11 0l-104-45.2c-3.04-1.32-3.04-3.46 0-4.8z" stroke="#5e5e5e" stroke-width="3" fill="#fff"/><use xlink:href="#t" transform="matrix(1,0,0,1,950,827.2662093130564) translate(28.22722222222225 47.972222222222214)"/><use xlink:href="#u" transform="matrix(1,0,0,1,950,827.2662093130564) translate(105.06672839506173 47.972222222222214)"/><use xlink:href="#v" transform="matrix(1,0,0,1,950,827.2662093130564) translate(119.88154320987654 47.972222222222214)"/><path d="M1060 682.5v138.8" stroke="#5e5e5e" stroke-width="2" fill="none"/><path d="M1061 682.53h-2v-1.03h2M1061 822.3l-2 .03v-1.05h2" fill="#5e5e5e"/><path d="M1060 923.22v94.28" stroke="#5e5e5e" stroke-width="2" fill="none"/><path d="M1061 923.25h-2v-1l2-.04M1061 1018.5h-2v-1.03h2" fill="#5e5e5e"/><path d="M919.68 236.02H740.32" stroke="#5e5e5e" stroke-width="2" fill="none"/><path d="M938.05 246.02l-20-10 20-10" stroke="#5e5e5e" stroke-width="2" fill="#fff" fill-opacity="0"/><path d="M938.05 236.02h-20" stroke="#5e5e5e" stroke-width="2" fill="#fff"/><path d="M721.95 226.02l20 10-20 10" stroke="#5e5e5e" stroke-width="2" fill="#fff" fill-opacity="0"/><path d="M721.95 236.02h20" stroke="#5e5e5e" stroke-width="2" fill="#fff"/><path d="M1241 180c13.25 0 24 11.2 24 25s-10.75 25-24 25h-72c-13.25 0-24-11.2-24-25s10.75-25 24-25z" stroke="#5e5e5e" stroke-width="3" fill="#fff"/><use xlink:href="#i" transform="matrix(1,0,0,1,1150,185) translate(43.91975308641975 25.27777777777778)"/><path d="M1102.5 236.02h14c3.3 0 6-2.7 6-6V211c0-3.3 2.68-6 6-6h14" stroke="#5e5e5e" stroke-width="2" fill="none"/><path d="M1102.53 237.02h-1.03v-2h1.03M1143.5 205l.08 1h-1.1v-2h1.1" fill="#5e5e5e"/><path d="M456 915c13.25 0 24 13.43 24 30s-10.75 30-24 30h-72c-13.25 0-24-13.43-24-30s10.75-30 24-30z" stroke="#5e5e5e" stroke-width="3" fill="#fff"/><use xlink:href="#j" transform="matrix(1,0,0,1,365,920) translate(12.5 30.27777777777778)"/><use xlink:href="#m" transform="matrix(1,0,0,1,365,920) translate(40.83333333333333 30.27777777777778)"/><path d="M488 1055c17.67 0 32 13.43 32 30s-14.33 30-32 30h-96c-17.67 0-32-13.43-32-30s14.33-30 32-30z" stroke="#5e5e5e" stroke-width="3" fill="#fff"/><use xlink:href="#w" transform="matrix(1,0,0,1,365,1060) translate(23.240740740740748 30.52777777777778)"/><use xlink:href="#x" transform="matrix(1,0,0,1,365,1060) translate(51.574074074074076 30.52777777777778)"/><path d="M522.5 1085H534c3.3 0 6-2.7 6-6v-44.76c0-3.3 2.7-6 6-6h11.5" stroke="#5e5e5e" stroke-width="2" fill="none"/><path d="M522.53 1086h-1.1l.07-.94v-.37l-.06-.7h1.1M558.5 1029.24h-1.03v-2h1.03" fill="#5e5e5e"/><path d="M482.5 945H514c3.3 0 6 2.7 6 6v45c0 3.3 2.7 6 6 6h31.5" stroke="#5e5e5e" stroke-width="2" fill="none"/><path d="M482.53 946h-1.1l.07-.96-.03-1.04h1.06M558.5 1003h-1.03v-2h1.03" fill="#5e5e5e"/><path d="M476 845c13.25 0 24 13.43 24 30s-10.75 30-24 30h-72c-13.25 0-24-13.43-24-30s10.75-30 24-30z" stroke="#5e5e5e" stroke-width="3" fill="#fff"/><use xlink:href="#y" transform="matrix(1,0,0,1,385,850) translate(24.16666666666667 30.27777777777778)"/><path d="M502.5 875H524c3.3 0 6 2.7 6 6v103.5c0 3.32 2.7 6 6 6h21.5" stroke="#5e5e5e" stroke-width="2" fill="none"/><path d="M502.53 876h-1.1l.07-.96-.03-1.04h1.06M558.5 991.5h-1.03v-2h1.03" fill="#5e5e5e"/><path d="M640 682.5v77.17" stroke="#5e5e5e" stroke-width="2" fill="none"/><path d="M641 682.53h-2v-1.03h2M641 760.7l-2-.05v-1h2" fill="#5e5e5e"/><path d="M640 880.33v74.35" stroke="#5e5e5e" stroke-width="2" fill="none"/><path d="M641 879.35v1h-2v-1.04" fill="#5e5e5e"/><path d="M630 973.05l10-20 10 20" stroke="#5e5e5e" stroke-width="2" fill="#fff" fill-opacity="0"/><path d="M640 973.05v-20" stroke="#5e5e5e" stroke-width="2" fill="#fff"/><path d="M1296 1000c13.25 0 24 11.2 24 25s-10.75 25-24 25h-72c-13.25 0-24-11.2-24-25s10.75-25 24-25z" stroke="#5e5e5e" stroke-width="3" fill="#fff"/><use xlink:href="#w" transform="matrix(1,0,0,1,1205,1005) translate(4.475308641975317 25.27777777777778)"/><use xlink:href="#z" transform="matrix(1,0,0,1,1205,1005) translate(32.808641975308646 25.27777777777778)"/><path d="M1197.5 1025h-19c-3.32 0-6 2.7-6 6v23c0 3.3-2.7 6-6 6h-19" stroke="#5e5e5e" stroke-width="2" fill="none"/><path d="M1198.5 1025l.08 1h-1.1v-2h1.1M1147.53 1061h-1.03v-2h1.03" fill="#5e5e5e"/><path d="M1241 240c13.25 0 24 11.2 24 25s-10.75 25-24 25h-72c-13.25 0-24-11.2-24-25s10.75-25 24-25z" stroke="#5e5e5e" stroke-width="3" fill="#fff"/><use xlink:href="#A" transform="matrix(1,0,0,1,1150,245) translate(15.586419753086417 25.27777777777778)"/><path d="M1142.5 265h-14c-3.32 0-6-2.7-6-6v-16.98c0-3.32-2.7-6-6-6h-14" stroke="#5e5e5e" stroke-width="2" fill="none"/><path d="M1143.5 265l.08 1h-1.1v-2h1.1M1102.53 237.02h-1.03v-2h1.03" fill="#5e5e5e"/><path d="M1316 460c13.25 0 24 11.2 24 25s-10.75 25-24 25h-72c-13.25 0-24-11.2-24-25s10.75-25 24-25z" stroke="#5e5e5e" stroke-width="3" fill="#fff"/><use xlink:href="#A" transform="matrix(1,0,0,1,1225,465) translate(15.586419753086417 25.27777777777778)"/><path d="M1217.5 485H1206c-3.32 0-6-2.7-6-6v-13c0-3.3-2.7-6-6-6h-11.5" stroke="#5e5e5e" stroke-width="2" fill="none"/><path d="M1218.5 485l.08 1h-1.1v-2h1.1M1182.53 461h-1.03v-2h1.03" fill="#5e5e5e"/><path d="M1296 650c13.25 0 24 11.2 24 25s-10.75 25-24 25h-72c-13.25 0-24-11.2-24-25s10.75-25 24-25z" stroke="#5e5e5e" stroke-width="3" fill="#fff"/><use xlink:href="#A" transform="matrix(1,0,0,1,1205,655) translate(15.586419753086417 25.27777777777778)"/><path d="M1197.5 675H1176c-3.32 0-6-2.7-6-6v-23c0-3.3-2.7-6-6-6h-21.5" stroke="#5e5e5e" stroke-width="2" fill="none"/><path d="M1198.5 675l.08 1h-1.1v-2h1.1M1142.53 641h-1.03v-2h1.03" fill="#5e5e5e"/><path d="M492 420c15.46 0 28 11.2 28 25s-12.54 25-28 25h-84c-15.46 0-28-11.2-28-25s12.54-25 28-25z" stroke="#5e5e5e" stroke-width="3" fill="#fff"/><g><use xlink:href="#j" transform="matrix(1,0,0,1,385,425) translate(13.245740740740745 25.46527777777778)"/><use xlink:href="#B" transform="matrix(1,0,0,1,385,425) translate(41.57907407407408 25.46527777777778)"/></g><path d="M522.5 445h11.95c3.3 0 6 2.7 6 6v145.5c0 3.3 2.7 6 6 6h11.94" stroke="#5e5e5e" stroke-width="2" fill="none"/><path d="M522.53 446h-1.1l.07-1-.07-1h1.1M559.48 602.2l-.36 1.3h-.75v-2h1.8" fill="#5e5e5e"/><defs><path fill="#333" d="M212-179c-10-28-35-45-73-45-59 0-87 40-87 99 0 60 29 101 89 101 43 0 62-24 78-52l27 14C228-24 195 4 139 4 59 4 22-46 18-125c-6-104 99-153 187-111 19 9 31 26 39 46" id="C"/><path fill="#333" d="M84 4C-5 8 30-112 23-190h32v120c0 31 7 50 39 49 72-2 45-101 50-169h31l1 190h-30c-1-10 1-25-2-33-11 22-28 36-60 37" id="D"/><path fill="#333" d="M114-163C36-179 61-72 57 0H25l-1-190h30c1 12-1 29 2 39 6-27 23-49 58-41v29" id="E"/><path fill="#333" d="M135-143c-3-34-86-38-87 0 15 53 115 12 119 90S17 21 10-45l28-5c4 36 97 45 98 0-10-56-113-15-118-90-4-57 82-63 122-42 12 7 21 19 24 35" id="F"/><path fill="#333" d="M100-194c62-1 85 37 85 99 1 63-27 99-86 99S16-35 15-95c0-66 28-99 85-99zM99-20c44 1 53-31 53-75 0-43-8-75-51-75s-53 32-53 75 10 74 51 75" id="G"/><g id="a"><use transform="matrix(0.06172839506172839,0,0,0.06172839506172839,0,0)" xlink:href="#C"/><use transform="matrix(0.06172839506172839,0,0,0.06172839506172839,15.987654320987653,0)" xlink:href="#D"/><use transform="matrix(0.06172839506172839,0,0,0.06172839506172839,28.333333333333332,0)" xlink:href="#E"/><use transform="matrix(0.06172839506172839,0,0,0.06172839506172839,35.67901234567901,0)" xlink:href="#F"/><use transform="matrix(0.06172839506172839,0,0,0.06172839506172839,46.79012345679013,0)" xlink:href="#G"/></g><path fill="#333" d="M24 0v-261h32V0H24" id="H"/><path fill="#333" d="M24-231v-30h32v30H24zM24 0v-190h32V0H24" id="I"/><path fill="#333" d="M100-194c63 0 86 42 84 106H49c0 40 14 67 53 68 26 1 43-12 49-29l28 8c-11 28-37 45-77 45C44 4 14-33 15-96c1-61 26-98 85-98zm52 81c6-60-76-77-97-28-3 7-6 17-6 28h103" id="J"/><path fill="#333" d="M117-194c89-4 53 116 60 194h-32v-121c0-31-8-49-39-48C34-167 62-67 57 0H25l-1-190h30c1 10-1 24 2 32 11-22 29-35 61-36" id="K"/><path fill="#333" d="M59-47c-2 24 18 29 38 22v24C64 9 27 4 27-40v-127H5v-23h24l9-43h21v43h35v23H59v120" id="L"/><g id="b"><use transform="matrix(0.06172839506172839,0,0,0.06172839506172839,0,0)" xlink:href="#C"/><use transform="matrix(0.06172839506172839,0,0,0.06172839506172839,15.987654320987653,0)" xlink:href="#H"/><use transform="matrix(0.06172839506172839,0,0,0.06172839506172839,20.864197530864196,0)" xlink:href="#I"/><use transform="matrix(0.06172839506172839,0,0,0.06172839506172839,25.74074074074074,0)" xlink:href="#J"/><use transform="matrix(0.06172839506172839,0,0,0.06172839506172839,38.08641975308642,0)" xlink:href="#K"/><use transform="matrix(0.06172839506172839,0,0,0.06172839506172839,50.432098765432094,0)" xlink:href="#L"/><use transform="matrix(0.06172839506172839,0,0,0.06172839506172839,56.60493827160494,0)" xlink:href="#J"/></g><path fill="#333" d="M205 0l-28-72H64L36 0H1l101-248h38L239 0h-34zm-38-99l-47-123c-12 45-31 82-46 123h93" id="M"/><path fill="#333" d="M210-169c-67 3-38 105-44 169h-31v-121c0-29-5-50-35-48C34-165 62-65 56 0H25l-1-190h30c1 10-1 24 2 32 10-44 99-50 107 0 11-21 27-35 58-36 85-2 47 119 55 194h-31v-121c0-29-5-49-35-48" id="N"/><g id="c"><use transform="matrix(0.06172839506172839,0,0,0.06172839506172839,0,0)" xlink:href="#M"/><use transform="matrix(0.06172839506172839,0,0,0.06172839506172839,14.814814814814813,0)" xlink:href="#H"/><use transform="matrix(0.06172839506172839,0,0,0.06172839506172839,19.691358024691354,0)" xlink:href="#D"/><use transform="matrix(0.06172839506172839,0,0,0.06172839506172839,32.03703703703703,0)" xlink:href="#N"/><use transform="matrix(0.06172839506172839,0,0,0.06172839506172839,50.49382716049382,0)" xlink:href="#K"/><use transform="matrix(0.06172839506172839,0,0,0.06172839506172839,62.8395061728395,0)" xlink:href="#G"/></g><path fill="#333" d="M141-36C126-15 110 5 73 4 37 3 15-17 15-53c-1-64 63-63 125-63 3-35-9-54-41-54-24 1-41 7-42 31l-33-3c5-37 33-52 76-52 45 0 72 20 72 64v82c-1 20 7 32 28 27v20c-31 9-61-2-59-35zM48-53c0 20 12 33 32 33 41-3 63-29 60-74-43 2-92-5-92 41" id="O"/><path fill="#333" d="M96-169c-40 0-48 33-48 73s9 75 48 75c24 0 41-14 43-38l32 2c-6 37-31 61-74 61-59 0-76-41-82-99-10-93 101-131 147-64 4 7 5 14 7 22l-32 3c-4-21-16-35-41-35" id="P"/><g id="d"><use transform="matrix(0.06172839506172839,0,0,0.06172839506172839,0,0)" xlink:href="#C"/><use transform="matrix(0.06172839506172839,0,0,0.06172839506172839,15.987654320987653,0)" xlink:href="#G"/><use transform="matrix(0.06172839506172839,0,0,0.06172839506172839,28.333333333333332,0)" xlink:href="#K"/><use transform="matrix(0.06172839506172839,0,0,0.06172839506172839,40.67901234567901,0)" xlink:href="#L"/><use transform="matrix(0.06172839506172839,0,0,0.06172839506172839,46.851851851851855,0)" xlink:href="#O"/><use transform="matrix(0.06172839506172839,0,0,0.06172839506172839,59.19753086419753,0)" xlink:href="#P"/><use transform="matrix(0.06172839506172839,0,0,0.06172839506172839,70.30864197530865,0)" xlink:href="#L"/><use transform="matrix(0.06172839506172839,0,0,0.06172839506172839,76.48148148148148,0)" xlink:href="#G"/></g><g id="e"><use transform="matrix(0.06172839506172839,0,0,0.06172839506172839,0,0)" xlink:href="#C"/><use transform="matrix(0.06172839506172839,0,0,0.06172839506172839,15.987654320987653,0)" xlink:href="#H"/><use transform="matrix(0.06172839506172839,0,0,0.06172839506172839,20.864197530864196,0)" xlink:href="#O"/><use transform="matrix(0.06172839506172839,0,0,0.06172839506172839,33.20987654320987,0)" xlink:href="#F"/><use transform="matrix(0.06172839506172839,0,0,0.06172839506172839,44.32098765432099,0)" xlink:href="#J"/></g><g id="f"><use transform="matrix(0.06172839506172839,0,0,0.06172839506172839,0,0)" xlink:href="#M"/><use transform="matrix(0.06172839506172839,0,0,0.06172839506172839,14.814814814814813,0)" xlink:href="#F"/><use transform="matrix(0.06172839506172839,0,0,0.06172839506172839,25.925925925925924,0)" xlink:href="#I"/><use transform="matrix(0.06172839506172839,0,0,0.06172839506172839,30.80246913580247,0)" xlink:href="#F"/><use transform="matrix(0.06172839506172839,0,0,0.06172839506172839,41.91358024691358,0)" xlink:href="#L"/><use transform="matrix(0.06172839506172839,0,0,0.06172839506172839,48.086419753086425,0)" xlink:href="#J"/><use transform="matrix(0.06172839506172839,0,0,0.06172839506172839,60.4320987654321,0)" xlink:href="#K"/><use transform="matrix(0.06172839506172839,0,0,0.06172839506172839,72.77777777777779,0)" xlink:href="#P"/><use transform="matrix(0.06172839506172839,0,0,0.06172839506172839,83.8888888888889,0)" xlink:href="#I"/><use transform="matrix(0.06172839506172839,0,0,0.06172839506172839,88.76543209876544,0)" xlink:href="#O"/></g><path fill="#333" d="M233-177c-1 41-23 64-60 70L243 0h-38l-65-103H63V0H30v-248c88 3 205-21 203 71zM63-129c60-2 137 13 137-47 0-61-80-42-137-45v92" id="Q"/><path fill="#333" d="M177-190C167-65 218 103 67 71c-23-6-38-20-44-43l32-5c15 47 100 32 89-28v-30C133-14 115 1 83 1 29 1 15-40 15-95c0-56 16-97 71-98 29-1 48 16 59 35 1-10 0-23 2-32h30zM94-22c36 0 50-32 50-73 0-42-14-75-50-75-39 0-46 34-46 75s6 73 46 73" id="R"/><g id="g"><use transform="matrix(0.06172839506172839,0,0,0.06172839506172839,0,0)" xlink:href="#Q"/><use transform="matrix(0.06172839506172839,0,0,0.06172839506172839,15.987654320987653,0)" xlink:href="#J"/><use transform="matrix(0.06172839506172839,0,0,0.06172839506172839,28.333333333333332,0)" xlink:href="#R"/><use transform="matrix(0.06172839506172839,0,0,0.06172839506172839,40.67901234567901,0)" xlink:href="#I"/><use transform="matrix(0.06172839506172839,0,0,0.06172839506172839,45.55555555555556,0)" xlink:href="#F"/><use transform="matrix(0.06172839506172839,0,0,0.06172839506172839,56.66666666666667,0)" xlink:href="#L"/><use transform="matrix(0.06172839506172839,0,0,0.06172839506172839,62.83950617283951,0)" xlink:href="#E"/><use transform="matrix(0.06172839506172839,0,0,0.06172839506172839,70.18518518518519,0)" xlink:href="#O"/><use transform="matrix(0.06172839506172839,0,0,0.06172839506172839,82.53086419753087,0)" xlink:href="#E"/></g><g id="h"><use transform="matrix(0.06172839506172839,0,0,0.06172839506172839,0,0)" xlink:href="#M"/><use transform="matrix(0.06172839506172839,0,0,0.06172839506172839,14.814814814814813,0)" xlink:href="#F"/><use transform="matrix(0.06172839506172839,0,0,0.06172839506172839,25.925925925925924,0)" xlink:href="#I"/><use transform="matrix(0.06172839506172839,0,0,0.06172839506172839,30.80246913580247,0)" xlink:href="#R"/><use transform="matrix(0.06172839506172839,0,0,0.06172839506172839,43.148148148148145,0)" xlink:href="#K"/><use transform="matrix(0.06172839506172839,0,0,0.06172839506172839,55.49382716049382,0)" xlink:href="#O"/><use transform="matrix(0.06172839506172839,0,0,0.06172839506172839,67.8395061728395,0)" xlink:href="#E"/></g><path fill="#333" d="M33 0v-248h34V0H33" id="S"/><path fill="#333" d="M30-248c118-7 216 8 213 122C240-48 200 0 122 0H30v-248zM63-27c89 8 146-16 146-99s-60-101-146-95v194" id="T"/><g id="i"><use transform="matrix(0.06172839506172839,0,0,0.06172839506172839,0,0)" xlink:href="#S"/><use transform="matrix(0.06172839506172839,0,0,0.06172839506172839,6.172839506172839,0)" xlink:href="#T"/></g><g id="j"><use transform="matrix(0.06172839506172839,0,0,0.06172839506172839,0,0)" xlink:href="#S"/><use transform="matrix(0.06172839506172839,0,0,0.06172839506172839,6.172839506172839,0)" xlink:href="#T"/></g><g id="k"><use transform="matrix(0.06172839506172839,0,0,0.06172839506172839,0,0)" xlink:href="#P"/><use transform="matrix(0.06172839506172839,0,0,0.06172839506172839,11.11111111111111,0)" xlink:href="#D"/><use transform="matrix(0.06172839506172839,0,0,0.06172839506172839,23.45679012345679,0)" xlink:href="#E"/><use transform="matrix(0.06172839506172839,0,0,0.06172839506172839,30.80246913580247,0)" xlink:href="#F"/><use transform="matrix(0.06172839506172839,0,0,0.06172839506172839,41.91358024691358,0)" xlink:href="#G"/></g><path fill="#333" d="M158-156l-14 65h45v19h-49L124 0h-19l15-72H56L41 0H22l15-72H2v-19h39l14-65H11v-19h48l15-71h20l-16 71h64l16-71h19l-16 71h37v19h-40zm-83 0L61-91h63l14-65H75" id="U"/><use transform="matrix(0.06172839506172839,0,0,0.06172839506172839,0,0)" xlink:href="#U" id="l"/><g id="m"><use transform="matrix(0.06172839506172839,0,0,0.06172839506172839,0,0)" xlink:href="#C"/><use transform="matrix(0.06172839506172839,0,0,0.06172839506172839,15.987654320987653,0)" xlink:href="#H"/><use transform="matrix(0.06172839506172839,0,0,0.06172839506172839,20.864197530864196,0)" xlink:href="#O"/><use transform="matrix(0.06172839506172839,0,0,0.06172839506172839,33.20987654320987,0)" xlink:href="#F"/><use transform="matrix(0.06172839506172839,0,0,0.06172839506172839,44.32098765432099,0)" xlink:href="#J"/></g><path fill="#333" d="M197 0v-115H63V0H30v-248h33v105h134v-105h34V0h-34" id="V"/><g id="n"><use transform="matrix(0.06172839506172839,0,0,0.06172839506172839,0,0)" xlink:href="#V"/><use transform="matrix(0.06172839506172839,0,0,0.06172839506172839,15.987654320987653,0)" xlink:href="#G"/><use transform="matrix(0.06172839506172839,0,0,0.06172839506172839,28.333333333333332,0)" xlink:href="#E"/><use transform="matrix(0.06172839506172839,0,0,0.06172839506172839,35.67901234567901,0)" xlink:href="#O"/><use transform="matrix(0.06172839506172839,0,0,0.06172839506172839,48.02469135802469,0)" xlink:href="#E"/><use transform="matrix(0.06172839506172839,0,0,0.06172839506172839,55.37037037037037,0)" xlink:href="#I"/><use transform="matrix(0.06172839506172839,0,0,0.06172839506172839,60.24691358024691,0)" xlink:href="#G"/></g><path fill="#333" d="M30-248c87 1 191-15 191 75 0 78-77 80-158 76V0H30v-248zm33 125c57 0 124 11 124-50 0-59-68-47-124-48v98" id="W"/><path fill="#333" d="M101-234c-31-9-42 10-38 44h38v23H63V0H32v-167H5v-23h27c-7-52 17-82 69-68v24" id="X"/><g id="o"><use transform="matrix(0.06172839506172839,0,0,0.06172839506172839,0,0)" xlink:href="#W"/><use transform="matrix(0.06172839506172839,0,0,0.06172839506172839,14.814814814814813,0)" xlink:href="#E"/><use transform="matrix(0.06172839506172839,0,0,0.06172839506172839,22.160493827160494,0)" xlink:href="#G"/><use transform="matrix(0.06172839506172839,0,0,0.06172839506172839,34.50617283950617,0)" xlink:href="#X"/><use transform="matrix(0.06172839506172839,0,0,0.06172839506172839,40.67901234567901,0)" xlink:href="#J"/><use transform="matrix(0.06172839506172839,0,0,0.06172839506172839,53.02469135802469,0)" xlink:href="#F"/><use transform="matrix(0.06172839506172839,0,0,0.06172839506172839,64.1358024691358,0)" xlink:href="#G"/><use transform="matrix(0.06172839506172839,0,0,0.06172839506172839,76.48148148148148,0)" xlink:href="#E"/></g><path fill="#333" d="M127-220V0H93v-220H8v-28h204v28h-85" id="Y"/><g id="p"><use transform="matrix(0.06172839506172839,0,0,0.06172839506172839,0,0)" xlink:href="#Y"/><use transform="matrix(0.06172839506172839,0,0,0.06172839506172839,12.716049382716047,0)" xlink:href="#I"/><use transform="matrix(0.06172839506172839,0,0,0.06172839506172839,17.592592592592588,0)" xlink:href="#L"/><use transform="matrix(0.06172839506172839,0,0,0.06172839506172839,23.765432098765427,0)" xlink:href="#D"/><use transform="matrix(0.06172839506172839,0,0,0.06172839506172839,36.11111111111111,0)" xlink:href="#H"/><use transform="matrix(0.06172839506172839,0,0,0.06172839506172839,40.98765432098765,0)" xlink:href="#G"/></g><path fill="#333" d="M185-189c-5-48-123-54-124 2 14 75 158 14 163 119 3 78-121 87-175 55-17-10-28-26-33-46l33-7c5 56 141 63 141-1 0-78-155-14-162-118-5-82 145-84 179-34 5 7 8 16 11 25" id="Z"/><g id="q"><use transform="matrix(0.06172839506172839,0,0,0.06172839506172839,0,0)" xlink:href="#Z"/><use transform="matrix(0.06172839506172839,0,0,0.06172839506172839,14.814814814814813,0)" xlink:href="#J"/><use transform="matrix(0.06172839506172839,0,0,0.06172839506172839,27.160493827160494,0)" xlink:href="#N"/><use transform="matrix(0.06172839506172839,0,0,0.06172839506172839,45.61728395061728,0)" xlink:href="#J"/><use transform="matrix(0.06172839506172839,0,0,0.06172839506172839,57.962962962962955,0)" xlink:href="#F"/><use transform="matrix(0.06172839506172839,0,0,0.06172839506172839,69.07407407407406,0)" xlink:href="#L"/><use transform="matrix(0.06172839506172839,0,0,0.06172839506172839,75.2469135802469,0)" xlink:href="#E"/><use transform="matrix(0.06172839506172839,0,0,0.06172839506172839,82.59259259259258,0)" xlink:href="#J"/></g><path fill="#333" d="M118-194c89-4 53 116 60 194h-32v-121c0-31-8-49-39-48C35-167 63-67 58 0H26l-1-190h30c1 10-1 24 2 32 11-22 29-35 61-36zm47-64c-3 23-9 48-36 47-26-1-65-44-74 0H39c4-23 8-48 36-47s64 44 74 0h16" id="aa"/><g id="r"><use transform="matrix(0.06172839506172839,0,0,0.06172839506172839,0,0)" xlink:href="#M"/><use transform="matrix(0.06172839506172839,0,0,0.06172839506172839,14.814814814814813,0)" xlink:href="#aa"/><use transform="matrix(0.06172839506172839,0,0,0.06172839506172839,27.160493827160494,0)" xlink:href="#G"/></g><g id="s"><use transform="matrix(0.06172839506172839,0,0,0.06172839506172839,0,0)" xlink:href="#W"/><use transform="matrix(0.06172839506172839,0,0,0.06172839506172839,14.814814814814813,0)" xlink:href="#E"/><use transform="matrix(0.06172839506172839,0,0,0.06172839506172839,22.160493827160494,0)" xlink:href="#G"/><use transform="matrix(0.06172839506172839,0,0,0.06172839506172839,34.50617283950617,0)" xlink:href="#X"/><use transform="matrix(0.06172839506172839,0,0,0.06172839506172839,40.67901234567901,0)" xlink:href="#J"/><use transform="matrix(0.06172839506172839,0,0,0.06172839506172839,53.02469135802469,0)" xlink:href="#F"/><use transform="matrix(0.06172839506172839,0,0,0.06172839506172839,64.1358024691358,0)" xlink:href="#G"/><use transform="matrix(0.06172839506172839,0,0,0.06172839506172839,76.48148148148148,0)" xlink:href="#E"/></g><g id="t"><use transform="matrix(0.0493827160493827,0,0,0.0493827160493827,0,0)" xlink:href="#Q"/><use transform="matrix(0.0493827160493827,0,0,0.0493827160493827,12.79012345679012,0)" xlink:href="#J"/><use transform="matrix(0.0493827160493827,0,0,0.0493827160493827,22.666666666666657,0)" xlink:href="#R"/><use transform="matrix(0.0493827160493827,0,0,0.0493827160493827,32.543209876543195,0)" xlink:href="#I"/><use transform="matrix(0.0493827160493827,0,0,0.0493827160493827,36.44444444444443,0)" xlink:href="#F"/><use transform="matrix(0.0493827160493827,0,0,0.0493827160493827,45.333333333333314,0)" xlink:href="#L"/><use transform="matrix(0.0493827160493827,0,0,0.0493827160493827,50.27160493827159,0)" xlink:href="#E"/><use transform="matrix(0.0493827160493827,0,0,0.0493827160493827,56.14814814814813,0)" xlink:href="#O"/><use transform="matrix(0.0493827160493827,0,0,0.0493827160493827,66.02469135802467,0)" xlink:href="#E"/></g><use transform="matrix(0.0493827160493827,0,0,0.0493827160493827,0,0)" xlink:href="#G" id="u"/><path fill="#333" d="M85-194c31 0 48 13 60 33l-1-100h32l1 261h-30c-2-10 0-23-3-31C134-8 116 4 85 4 32 4 16-35 15-94c0-66 23-100 70-100zm9 24c-40 0-46 34-46 75 0 40 6 74 45 74 42 0 51-32 51-76 0-42-9-74-50-73" id="ab"/><g id="v"><use transform="matrix(0.0493827160493827,0,0,0.0493827160493827,0,0)" xlink:href="#N"/><use transform="matrix(0.0493827160493827,0,0,0.0493827160493827,14.765432098765427,0)" xlink:href="#G"/><use transform="matrix(0.0493827160493827,0,0,0.0493827160493827,24.641975308641968,0)" xlink:href="#ab"/><use transform="matrix(0.0493827160493827,0,0,0.0493827160493827,34.518518518518505,0)" xlink:href="#I"/><use transform="matrix(0.0493827160493827,0,0,0.0493827160493827,38.41975308641974,0)" xlink:href="#X"/><use transform="matrix(0.0493827160493827,0,0,0.0493827160493827,43.35802469135801,0)" xlink:href="#I"/><use transform="matrix(0.0493827160493827,0,0,0.0493827160493827,47.259259259259245,0)" xlink:href="#P"/><use transform="matrix(0.0493827160493827,0,0,0.0493827160493827,56.14814814814813,0)" xlink:href="#O"/><use transform="matrix(0.0493827160493827,0,0,0.0493827160493827,66.02469135802467,0)" xlink:href="#E"/></g><g id="w"><use transform="matrix(0.06172839506172839,0,0,0.06172839506172839,0,0)" xlink:href="#S"/><use transform="matrix(0.06172839506172839,0,0,0.06172839506172839,6.172839506172839,0)" xlink:href="#T"/></g><g id="x"><use transform="matrix(0.06172839506172839,0,0,0.06172839506172839,0,0)" xlink:href="#M"/><use transform="matrix(0.06172839506172839,0,0,0.06172839506172839,14.814814814814813,0)" xlink:href="#H"/><use transform="matrix(0.06172839506172839,0,0,0.06172839506172839,19.691358024691354,0)" xlink:href="#D"/><use transform="matrix(0.06172839506172839,0,0,0.06172839506172839,32.03703703703703,0)" xlink:href="#N"/><use transform="matrix(0.06172839506172839,0,0,0.06172839506172839,50.49382716049382,0)" xlink:href="#K"/><use transform="matrix(0.06172839506172839,0,0,0.06172839506172839,62.8395061728395,0)" xlink:href="#G"/></g><path fill="#333" d="M63-220v92h138v28H63V0H30v-248h175v28H63" id="ac"/><path fill="#333" d="M106-169C34-169 62-67 57 0H25v-261h32l-1 103c12-21 28-36 61-36 89 0 53 116 60 194h-32v-121c2-32-8-49-39-48" id="ad"/><g id="y"><use transform="matrix(0.06172839506172839,0,0,0.06172839506172839,0,0)" xlink:href="#ac"/><use transform="matrix(0.06172839506172839,0,0,0.06172839506172839,13.518518518518517,0)" xlink:href="#J"/><use transform="matrix(0.06172839506172839,0,0,0.06172839506172839,25.864197530864196,0)" xlink:href="#P"/><use transform="matrix(0.06172839506172839,0,0,0.06172839506172839,36.9753086419753,0)" xlink:href="#ad"/><use transform="matrix(0.06172839506172839,0,0,0.06172839506172839,49.32098765432098,0)" xlink:href="#O"/></g><g id="z"><use transform="matrix(0.06172839506172839,0,0,0.06172839506172839,0,0)" xlink:href="#O"/><use transform="matrix(0.06172839506172839,0,0,0.06172839506172839,12.345679012345679,0)" xlink:href="#H"/><use transform="matrix(0.06172839506172839,0,0,0.06172839506172839,17.22222222222222,0)" xlink:href="#D"/><use transform="matrix(0.06172839506172839,0,0,0.06172839506172839,29.5679012345679,0)" xlink:href="#N"/><use transform="matrix(0.06172839506172839,0,0,0.06172839506172839,48.02469135802468,0)" xlink:href="#K"/><use transform="matrix(0.06172839506172839,0,0,0.06172839506172839,60.37037037037036,0)" xlink:href="#G"/></g><path fill="#333" d="M190 0L58-211 59 0H30v-248h39L202-35l-2-213h31V0h-41" id="ae"/><path fill="#333" d="M115-194c53 0 69 39 70 98 0 66-23 100-70 100C84 3 66-7 56-30L54 0H23l1-261h32v101c10-23 28-34 59-34zm-8 174c40 0 45-34 45-75 0-40-5-75-45-74-42 0-51 32-51 76 0 43 10 73 51 73" id="af"/><g id="A"><use transform="matrix(0.06172839506172839,0,0,0.06172839506172839,0,0)" xlink:href="#ae"/><use transform="matrix(0.06172839506172839,0,0,0.06172839506172839,15.987654320987653,0)" xlink:href="#G"/><use transform="matrix(0.06172839506172839,0,0,0.06172839506172839,28.333333333333332,0)" xlink:href="#N"/><use transform="matrix(0.06172839506172839,0,0,0.06172839506172839,46.79012345679012,0)" xlink:href="#af"/><use transform="matrix(0.06172839506172839,0,0,0.06172839506172839,59.1358024691358,0)" xlink:href="#E"/><use transform="matrix(0.06172839506172839,0,0,0.06172839506172839,66.48148148148148,0)" xlink:href="#J"/></g><g id="B"><use transform="matrix(0.06172839506172839,0,0,0.06172839506172839,0,0)" xlink:href="#M"/><use transform="matrix(0.06172839506172839,0,0,0.06172839506172839,14.814814814814813,0)" xlink:href="#H"/><use transform="matrix(0.06172839506172839,0,0,0.06172839506172839,19.691358024691354,0)" xlink:href="#D"/><use transform="matrix(0.06172839506172839,0,0,0.06172839506172839,32.03703703703703,0)" xlink:href="#N"/><use transform="matrix(0.06172839506172839,0,0,0.06172839506172839,50.49382716049382,0)" xlink:href="#K"/><use transform="matrix(0.06172839506172839,0,0,0.06172839506172839,62.8395061728395,0)" xlink:href="#G"/></g></defs></g></svg>